# xmcd CD database file
#
# Track frame offsets:
#	150
#	22789
#	46130
#	66784
#	86972
#	106989
#	126683
#	144464
#	165454
#	182117
#	201595
#
# Disc length: 2922 seconds
#
# Revision: 0
# Processed by: cddbd v1.5.2PL0 Copyright (c) Steve Scherf et al.
# Submitted via: CDex 1.51
#
DISCID=9d0b680b
DTITLE=Hilary Weeks - If I Only Had Today
DYEAR=2008
DGENRE=LDS Music
TTITLE0=If I Only Had Today
TTITLE1=Faultless
TTITLE2=Just Let Me cry
TTITLE3=Tender Behind THe Mercy
TTITLE4=When You Least Expect It
TTITLE5=Reaching
TTITLE6=He Loves Me
TTITLE7=You Give
TTITLE8=Now
TTITLE9=Take Me There
TTITLE10=It Would Never Be Enough
EXTD=YEAR: 2008
EXTT0=
EXTT1=
EXTT2=
EXTT3=
EXTT4=
EXTT5=
EXTT6=
EXTT7=
EXTT8=
EXTT9=
EXTT10=
PLAYORDER=
